<svg xmlns="http://www.w3.org/2000/svg" viewBox="0 0 880.55 138.08"><defs><style>.cls-1{fill:#0980a7;}</style></defs><g id="Lager_2" data-name="Lager 2"><g id="Lager_1-2" data-name="Lager 1"><path class="cls-1" d="M62.33,7.31c52.63,0,65.6,22.23,65.6,22.23h.2V0H0V29.54H.21S9.7,7.31,62.33,7.31Z"/><path class="cls-1" d="M65.8,130.76C13.17,130.76.21,108.52.21,108.52H0v29.56H128.13V108.52h-.2S118.44,130.76,65.8,130.76Z"/><path class="cls-1" d="M121,59.7c0-30.78-31.61-38.86-56.9-38.88-20.76,0-43.38,9.63-45,15s-.59,16-4.93,23.09c-1.36,2.22-4.89,3.7-4,4.29s4-1.56,4.8-1.17,1.44,3.63,2.64,3.39-1.31-3.44,0-6.36C26.05,40.13,38,32.43,56.1,30.73V92.22A57.33,57.33,0,0,1,43,89.71c-13.16-4.15-18-12.16-28-11.61-.56,0-.47.17-.17.33a22.65,22.65,0,0,1,4.8,4.94C26.76,93.7,41.74,98.54,56.1,100v5.54c0,10-5.8,14.2-10.76,15.47v.2H82.79V121c-5-1.27-10.76-5.49-10.76-15.47v-5.22C95.9,98.77,121,88,121,59.7Zm-15.09.71C105.52,82.2,89.7,90.19,72,92.05V30.76C86.8,32.33,106.21,39.12,105.88,60.41Z"/><path class="cls-1" d="M170.44,43.46q12.38,0,19,4.36t6.63,14.25q0,10-6.71,14.41T170.2,80.92h-3.91V99.44H153.83V44.9a72.44,72.44,0,0,1,8.63-1.12Q167,43.47,170.44,43.46Zm.8,10.63c-.9,0-1.79,0-2.67.08l-2.28.15v16h3.91c4.32,0,7.56-.58,9.75-1.75s3.27-3.36,3.27-6.55a7.84,7.84,0,0,0-.84-3.83A6.43,6.43,0,0,0,180,55.72a10.9,10.9,0,0,0-3.8-1.28A32.55,32.55,0,0,0,171.24,54.09Z"/><path class="cls-1" d="M220.67,43.46q12.45,0,19.08,4.44t6.63,13.77a15.57,15.57,0,0,1-2.67,9.46A17.61,17.61,0,0,1,236,76.84q1.68,2.09,3.51,4.75t3.64,5.59c1.2,1.95,2.35,4,3.47,6.07s2.16,4.17,3.12,6.19H235.81c-1-1.81-2-3.65-3.09-5.51s-2.11-3.67-3.2-5.43-2.18-3.42-3.25-5-2.14-3-3.2-4.27h-6.15v20.2H204.46V44.9a72.7,72.7,0,0,1,8.42-1.12C215.79,43.57,218.38,43.46,220.67,43.46Zm.72,10.63c-.91,0-1.72,0-2.44.08l-2,.15v15h3.51c4.68,0,8-.59,10.06-1.76s3-3.17,3-6a6.1,6.1,0,0,0-3.08-5.79Q227.38,54.09,221.39,54.09Z"/><path class="cls-1" d="M296.52,99.44c-.62-1.92-1.28-3.9-2-5.92s-1.41-4-2.11-6.06H270.8q-1,3-2.1,6.07t-2,5.91H253.81q3.12-8.94,5.92-16.53t5.49-14.29q2.68-6.7,5.29-12.74t5.4-11.78h11.81q2.73,5.76,5.38,11.78t5.33,12.74q2.69,6.7,5.5,14.29t5.93,16.53Zm-15-42.8c-.27.8-.68,1.9-1.22,3.28s-1.14,3-1.82,4.8-1.45,3.8-2.3,6-1.7,4.47-2.57,6.86h15.82Q288.2,74,287,70.68c-.79-2.18-1.55-4.18-2.26-6l-1.88-4.79C282.32,58.51,281.89,57.43,281.55,56.64Z"/><path class="cls-1" d="M348.79,99.44q-1.68-2.7-4-5.84t-4.92-6.32c-1.76-2.13-3.6-4.16-5.52-6.11A59.64,59.64,0,0,0,328.63,76V99.44H316.17V44.1h12.46V64.9q4.8-5,9.76-10.55t9.15-10.25h14.78Q356.68,50.84,351,57t-12,12.5a94.83,94.83,0,0,1,12.81,13.14A164.64,164.64,0,0,1,363.6,99.44Z"/><path class="cls-1" d="M412.87,44.1V54.72H396.18V99.44H383.72V54.72H367V44.1Z"/><path class="cls-1" d="M420.05,44.1h12.46V99.44H420.05Z"/><path class="cls-1" d="M477.11,99.44q-1.68-2.7-4-5.84t-4.91-6.32c-1.76-2.13-3.6-4.16-5.52-6.11A58.55,58.55,0,0,0,456.94,76V99.44H444.49V44.1h12.45V64.9q4.81-5,9.77-10.55t9.15-10.25h14.78Q485,50.84,479.28,57t-12,12.5a95.4,95.4,0,0,1,12.81,13.14,164.64,164.64,0,0,1,11.86,16.76Z"/><path class="cls-1" d="M498.31,99.44V44.1h37.37V54.56H510.76V65.42h22.12V75.65H510.76V89h26.75V99.44Z"/><path class="cls-1" d="M562.11,43.46q12.45,0,19.08,4.44t6.63,13.77a15.51,15.51,0,0,1-2.68,9.46,17.51,17.51,0,0,1-7.7,5.71q1.68,2.09,3.51,4.75t3.64,5.59q1.78,2.92,3.47,6.07c1.12,2.11,2.15,4.17,3.11,6.19H577.25l-3.09-5.51q-1.56-2.79-3.2-5.43t-3.25-5q-1.61-2.36-3.21-4.27h-6.15v20.2H545.9V44.9a72.42,72.42,0,0,1,8.42-1.12Q558.67,43.47,562.11,43.46Zm.72,10.63c-.91,0-1.72,0-2.44.08l-2,.15v15h3.52c4.68,0,8-.59,10.06-1.76s3-3.17,3-6-1-4.64-3.07-5.79S566.82,54.09,562.83,54.09Z"/><path class="cls-1" d="M638.6,44.1V54.72H621.92V99.44H609.46V54.72H592.77V44.1Z"/><path class="cls-1" d="M669.43,80.84a30.92,30.92,0,0,1-.92,7.66A14.72,14.72,0,0,1,659.17,99a26.46,26.46,0,0,1-9.79,1.56A29.34,29.34,0,0,1,640,99.24a26.37,26.37,0,0,1-6.47-3.07l4.16-9.67a34.37,34.37,0,0,0,4.95,2.4,15.56,15.56,0,0,0,5.75,1q4.55,0,6.54-2.24t2-7.5V44.1h12.46Z"/><path class="cls-1" d="M716.21,99.44c-.61-1.92-1.27-3.9-2-5.92l-2.12-6.06H690.5l-2.1,6.07q-1.06,3-2,5.91H673.5q3.12-8.94,5.93-16.53t5.48-14.29q2.69-6.7,5.29-12.74t5.41-11.78h11.8q2.73,5.76,5.38,11.78t5.33,12.74q2.7,6.7,5.5,14.29t5.94,16.53ZM692.1,38.59A6.28,6.28,0,0,1,687.79,37,5.65,5.65,0,0,1,686,32.53a5.67,5.67,0,0,1,1.83-4.44,6.53,6.53,0,0,1,8.63,0,5.67,5.67,0,0,1,1.83,4.44A5.65,5.65,0,0,1,696.42,37,6.3,6.3,0,0,1,692.1,38.59Zm9.15,18c-.28.8-.69,1.9-1.22,3.28s-1.15,3-1.83,4.8-1.45,3.8-2.29,6-1.71,4.47-2.58,6.86h15.83q-1.27-3.6-2.46-6.88c-.8-2.18-1.55-4.18-2.27-6l-1.88-4.79C702,58.51,701.58,57.43,701.25,56.64Zm8.66-18A6.26,6.26,0,0,1,705.6,37a5.62,5.62,0,0,1-1.84-4.43,5.64,5.64,0,0,1,1.84-4.44,6.51,6.51,0,0,1,8.62,0,5.64,5.64,0,0,1,1.84,4.44A5.62,5.62,0,0,1,714.22,37,6.26,6.26,0,0,1,709.91,38.59Z"/><path class="cls-1" d="M773,99.44q-5.34-9.5-11.57-18.76a191.93,191.93,0,0,0-13.26-17.49V99.44h-12.3V44.1H746q2.64,2.64,5.83,6.47t6.51,8.19q3.31,4.35,6.59,9t6.15,9V44.1h12.37V99.44Z"/><path class="cls-1" d="M810.52,89.94a18,18,0,0,0,4.35-.44,7.86,7.86,0,0,0,2.76-1.2,4,4,0,0,0,1.44-1.8,6.51,6.51,0,0,0,.4-2.31,5.36,5.36,0,0,0-2.56-4.51,36.55,36.55,0,0,0-8.78-3.88c-1.81-.63-3.62-1.37-5.43-2.19a19.77,19.77,0,0,1-4.87-3.12,14.85,14.85,0,0,1-3.52-4.55,14.29,14.29,0,0,1-1.35-6.5,16.09,16.09,0,0,1,1.43-6.91,14.77,14.77,0,0,1,4.08-5.23A18.66,18.66,0,0,1,804.85,44a28.83,28.83,0,0,1,8.47-1.15,33.68,33.68,0,0,1,16.37,3.83l-3.6,9.82a34.52,34.52,0,0,0-5.15-2.12,22.35,22.35,0,0,0-6.82-.91q-4.49,0-6.43,1.23a4.18,4.18,0,0,0-2,3.8,4.36,4.36,0,0,0,.72,2.55,7,7,0,0,0,2,1.88,18.6,18.6,0,0,0,3,1.52c1.15.45,2.41.91,3.79,1.39q4.32,1.61,7.51,3.16a20.16,20.16,0,0,1,5.31,3.63,13.2,13.2,0,0,1,3.15,4.87,19.43,19.43,0,0,1,1,6.79q0,7.74-5.43,12t-16.37,4.27a45.52,45.52,0,0,1-6.62-.44A41.21,41.21,0,0,1,798.67,99a28.93,28.93,0,0,1-3.92-1.36c-1.09-.48-2-.93-2.75-1.35l3.51-9.91a31.15,31.15,0,0,0,6.11,2.44A31.61,31.61,0,0,0,810.52,89.94Z"/><path class="cls-1" d="M880.55,44.1V54.72H863.86V99.44H851.41V54.72H834.72V44.1Z"/></g></g></svg>